<svg xmlns="http://www.w3.org/2000/svg" width="21" height="24" viewBox="0 0 21 24">
  <defs>
    <style>
      .cls-1 {
        fill: #205d21;
        fill-rule: evenodd;
      }
    </style>
  </defs>
  <path class="cls-1" d="M15.83,13.79c-2.119,0-4.371.712-4.371,2.03v6.429c0,1.319,2.252,2.031,4.371,2.031s4.371-.711,4.371-2.031V15.82C20.2,14.5,17.949,13.79,15.83,13.79Zm3.614,6.332c0,0.519-1.408,1.275-3.613,1.275s-3.613-.755-3.613-1.275V19.174a7.011,7.011,0,0,0,3.613.852,7.011,7.011,0,0,0,3.614-.852v0.949Zm0-2.127c0,0.52-1.408,1.274-3.613,1.274S12.217,18.516,12.217,18V17.012a7.011,7.011,0,0,0,3.613.852,7.011,7.011,0,0,0,3.614-.852V18ZM15.83,14.559c2.206,0,3.614.755,3.614,1.274s-1.408,1.275-3.613,1.275-3.613-.755-3.613-1.275S13.625,14.559,15.83,14.559Zm0,8.965c-2.206,0-3.613-.755-3.613-1.275V21.3a7.006,7.006,0,0,0,3.613.853,7.006,7.006,0,0,0,3.614-.853v0.949C19.444,22.769,18.036,23.524,15.83,23.524ZM13.8,11.537v-3.8a0.378,0.378,0,0,0-.379-0.377h-9.2a0.378,0.378,0,0,0-.379.377v3.8a0.378,0.378,0,0,0,.379.378h9.2A0.378,0.378,0,0,0,13.8,11.537Zm-0.757-.378H4.607V8.117h8.44v3.042ZM9.8,14.118H8.141a0.378,0.378,0,1,0,0,.756H9.8A0.378,0.378,0,1,0,9.8,14.118Zm0,2.623H8.141a0.378,0.378,0,1,0,0,.756H9.8A0.378,0.378,0,1,0,9.8,16.741Zm0,2.624H8.141a0.378,0.378,0,1,0,0,.756H9.8A0.378,0.378,0,1,0,9.8,19.365ZM5.886,14.118H4.228a0.378,0.378,0,1,0,0,.756H5.886A0.378,0.378,0,1,0,5.886,14.118Zm0,2.623H4.228a0.378,0.378,0,1,0,0,.756H5.886A0.378,0.378,0,1,0,5.886,16.741Zm0,2.624H4.228a0.378,0.378,0,1,0,0,.756H5.886A0.378,0.378,0,1,0,5.886,19.365Zm4.284,3.675H3.321A1.572,1.572,0,0,1,1.75,21.471V6.948A1.571,1.571,0,0,1,3.321,5.38H14.332A1.571,1.571,0,0,1,15.9,6.948v5.291a0.379,0.379,0,0,0,.757,0V6.948a2.329,2.329,0,0,0-2.329-2.324H3.321A2.329,2.329,0,0,0,.992,6.948V21.471A2.329,2.329,0,0,0,3.321,23.8H10.17A0.378,0.378,0,1,0,10.17,23.039Z"/>
</svg>
