<svg xmlns="http://www.w3.org/2000/svg" width="21" height="24" viewBox="0 0 21 24">
  <defs>
    <style>
      .cls-1 {
        fill: #205d21;
        fill-rule: evenodd;
      }
    </style>
  </defs>
  <path class="cls-1" d="M19.421,5.958H2.088A1.574,1.574,0,0,0,.515,7.53V21.105a1.574,1.574,0,0,0,1.573,1.572H19.421a1.574,1.574,0,0,0,1.573-1.572V7.53A1.574,1.574,0,0,0,19.421,5.958Zm0.924,15.148a0.925,0.925,0,0,1-.924.924H2.088a0.925,0.925,0,0,1-.924-0.924V7.53a0.925,0.925,0,0,1,.924-0.924H19.421a0.925,0.925,0,0,1,.924.924V21.105ZM19.119,8.179H1.951a0.324,0.324,0,1,0,0,.649H19.119A0.324,0.324,0,0,0,19.119,8.179ZM2.428,7.76H2.574a0.324,0.324,0,1,0,0-.649H2.428A0.324,0.324,0,1,0,2.428,7.76Zm1.473,0H4.047a0.324,0.324,0,1,0,0-.649H3.9A0.324,0.324,0,0,0,3.9,7.76Zm1.473,0H5.52a0.324,0.324,0,1,0,0-.649H5.373A0.324,0.324,0,0,0,5.373,7.76Zm2.472,8.021h5.818a0.211,0.211,0,0,0,.211-0.21V13.944a0.845,0.845,0,0,0-.672-0.893l-1.139-.444a1.571,1.571,0,0,0,.278-0.9,1.587,1.587,0,0,0-3.174,0,1.571,1.571,0,0,0,.278.9l-1.139.444a0.845,0.845,0,0,0-.671.893v1.626A0.21,0.21,0,0,0,7.845,15.781Zm2.909-2.9a1.166,1.166,0,1,1,1.166-1.165A1.167,1.167,0,0,1,10.754,12.876Zm-1,.063a1.584,1.584,0,0,0,2.005,0l1.291,0.5a0.447,0.447,0,0,1,.4.5V15.36H12.421v-0.79a0.211,0.211,0,0,0-.421,0v0.79H9.509v-0.79a0.21,0.21,0,0,0-.421,0v0.79H8.056V13.944a0.447,0.447,0,0,1,.4-0.5ZM14.794,18.7v-1a0.211,0.211,0,0,0-.21-0.211H10.965V16.639a0.211,0.211,0,0,0-.421,0V17.49H6.925a0.211,0.211,0,0,0-.211.211v1a0.834,0.834,0,1,0,.421,0V17.912h3.408V18.7a0.834,0.834,0,1,0,.421,0V17.912h3.408V18.7A0.834,0.834,0,1,0,14.794,18.7ZM7.338,19.5a0.413,0.413,0,1,1-.413-0.413A0.413,0.413,0,0,1,7.338,19.5Zm3.829,0a0.413,0.413,0,1,1-.413-0.413A0.413,0.413,0,0,1,11.167,19.5ZM15,19.5a0.413,0.413,0,1,1-.413-0.413A0.413,0.413,0,0,1,15,19.5Z"/>
</svg>
