<svg xmlns="http://www.w3.org/2000/svg" width="21" height="24" viewBox="0 0 21 24">
  <defs>
    <style>
      .cls-1 {
        fill: #205d21;
        fill-rule: evenodd;
      }
    </style>
  </defs>
  <path class="cls-1" d="M20.149,3.555a1.353,1.353,0,0,0-1.37.094l-6.7,3.883H1.413A1.353,1.353,0,0,0,.064,8.886v5.061A1.353,1.353,0,0,0,1.413,15.3H3.4l3.209,8.613a0.408,0.408,0,0,0,.382.266h3.6A0.408,0.408,0,0,0,11,23.772V22.143a0.41,0.41,0,0,0-.189-0.345l-1.066-.68V15.3H12.08l6.7,3.883a1.639,1.639,0,0,0,.812.239,1.1,1.1,0,0,0,.558-0.145,1.365,1.365,0,0,0,.6-1.238V4.793A1.365,1.365,0,0,0,20.149,3.555ZM4.095,14.483V8.35h7.78v6.132H4.095Zm-3.215-.536V8.886A0.535,0.535,0,0,1,1.413,8.35H3.279v6.132H1.413A0.535,0.535,0,0,1,.879,13.947Zm8.237,7.742,1.066,0.68v0.993H7.277l-3-8.06H8.928v6.042A0.41,0.41,0,0,0,9.117,21.689ZM19.938,18.04a0.6,0.6,0,0,1-.2.529,0.6,0.6,0,0,1-.554-0.093l-6.5-3.766V8.123l6.5-3.766a0.842,0.842,0,0,1,.4-0.13,0.3,0.3,0,0,1,.153.036,0.6,0.6,0,0,1,.2.529V18.04ZM9.189,9.957H6.781a0.409,0.409,0,0,0,0,.819H9.189A0.409,0.409,0,0,0,9.189,9.957Zm0,2.1H6.781a0.409,0.409,0,0,0,0,.818H9.189A0.409,0.409,0,0,0,9.189,12.057Z"/>
</svg>
