<svg xmlns="http://www.w3.org/2000/svg" width="21" height="24" viewBox="0 0 21 24">
  <defs>
    <style>
      .cls-1 {
        fill: #205d21;
        fill-rule: evenodd;
      }
    </style>
  </defs>
  <path class="cls-1" d="M4.937,24.038a0.415,0.415,0,1,1,0-.83h1.68a0.2,0.2,0,0,0,.125-0.043c0.262-.2.869-0.871,0.869-2.631a0.2,0.2,0,0,0-.2-0.2H2.3A1.485,1.485,0,0,1,.815,18.848V6.156A1.485,1.485,0,0,1,2.3,4.673H18.7A1.485,1.485,0,0,1,20.18,6.156V18.848A1.485,1.485,0,0,1,18.7,20.331h-5.11a0.2,0.2,0,0,0-.2.2c0,1.764.6,2.428,0.863,2.631a0.2,0.2,0,0,0,.125.044h1.686a0.415,0.415,0,1,1,0,.83H4.937Zm3.707-3.707a0.2,0.2,0,0,0-.2.2,5.324,5.324,0,0,1-.473,2.381,0.2,0.2,0,0,0,.181.294h4.7a0.2,0.2,0,0,0,.173-0.1,0.2,0.2,0,0,0,.009-0.2,5.324,5.324,0,0,1-.473-2.381,0.2,0.2,0,0,0-.2-0.2H8.644ZM2.3,5.5a0.654,0.654,0,0,0-.653.653V18.848A0.654,0.654,0,0,0,2.3,19.5H18.7a0.654,0.654,0,0,0,.653-0.653V6.156A0.662,0.662,0,0,0,18.7,5.5H2.3ZM3.7,7.974a0.415,0.415,0,1,1,0-.83H9.88a0.415,0.415,0,1,1,0,.83H3.7Zm0,1.994a0.415,0.415,0,1,1,0-.83H6.791a0.415,0.415,0,1,1,0,.83H3.7ZM4.32,17.86A0.416,0.416,0,0,1,3.9,17.445v-3.09A0.416,0.416,0,0,1,4.32,13.94H6.791a0.416,0.416,0,0,1,.415.415v3.09a0.416,0.416,0,0,1-.415.415H4.32ZM4.937,14.77a0.2,0.2,0,0,0-.2.2v1.853a0.2,0.2,0,0,0,.2.2H6.173a0.2,0.2,0,0,0,.2-0.2V14.973a0.2,0.2,0,0,0-.2-0.2H4.937ZM9.262,17.86a0.416,0.416,0,0,1-.415-0.415V11.266a0.415,0.415,0,0,1,.415-0.415h2.471a0.416,0.416,0,0,1,.415.415v6.179a0.416,0.416,0,0,1-.415.415H9.262ZM9.88,11.681a0.2,0.2,0,0,0-.2.2v4.942a0.2,0.2,0,0,0,.2.2h1.236a0.2,0.2,0,0,0,.2-0.2V11.884a0.2,0.2,0,0,0-.2-0.2H9.88Zm4.325,6.179a0.416,0.416,0,0,1-.415-0.415V8.177a0.416,0.416,0,0,1,.415-0.415h2.471a0.416,0.416,0,0,1,.415.415v9.268a0.416,0.416,0,0,1-.415.415H14.205Zm0.618-9.268a0.2,0.2,0,0,0-.2.2v8.031a0.2,0.2,0,0,0,.2.2h1.236a0.2,0.2,0,0,0,.2-0.2V8.8a0.2,0.2,0,0,0-.2-0.2H14.823Z"/>
</svg>
