<svg xmlns="http://www.w3.org/2000/svg" width="21" height="24" viewBox="0 0 21 24">
  <defs>
    <style>
      .cls-1 {
        fill: #205d21;
        fill-rule: evenodd;
      }
    </style>
  </defs>
  <path class="cls-1" d="M2.186,24.027a1.488,1.488,0,0,1-1.434-1.6V6.582A1.414,1.414,0,0,1,2.186,5.309h15.85A1.433,1.433,0,0,1,19.47,6.582v15.85a1.487,1.487,0,0,1-1.433,1.6H2.186ZM1.75,9.7a0.2,0.2,0,0,0-.2.2V22.432a0.694,0.694,0,0,0,.632.793h15.85a0.694,0.694,0,0,0,.631-0.793V9.891a0.2,0.2,0,0,0-.2-0.2H1.75ZM2.186,6.112a0.655,0.655,0,0,0-.63.448,0.189,0.189,0,0,0,0,.026V8.7a0.2,0.2,0,0,0,.2.2H18.472a0.2,0.2,0,0,0,.2-0.2V6.582a0.184,0.184,0,0,0,0-.029,0.656,0.656,0,0,0-.629-0.441H2.186ZM3.542,7.928A0.425,0.425,0,1,1,3.967,7.5,0.426,0.426,0,0,1,3.542,7.928Zm1.7,0A0.425,0.425,0,1,1,5.669,7.5,0.426,0.426,0,0,1,5.244,7.928Zm1.7,0A0.425,0.425,0,1,1,7.371,7.5,0.426,0.426,0,0,1,6.945,7.928Zm-3.4,8.933a0.4,0.4,0,0,1-.4-0.4V11.683a0.4,0.4,0,0,1,.4-0.4H8.917a0.4,0.4,0,0,1,.4.4V16.46a0.4,0.4,0,0,1-.4.4H3.542Zm0.6-4.777a0.2,0.2,0,0,0-.2.2v3.583a0.2,0.2,0,0,0,.2.2h4.18a0.2,0.2,0,0,0,.2-0.2V12.28a0.2,0.2,0,0,0-.2-0.2H4.139Zm7.166,4.777a0.4,0.4,0,0,1-.4-0.4V11.683a0.4,0.4,0,0,1,.4-0.4H16.68a0.4,0.4,0,0,1,.4.4V16.46a0.4,0.4,0,0,1-.4.4H11.305Zm0.6-4.777a0.2,0.2,0,0,0-.2.2v3.583a0.2,0.2,0,0,0,.2.2h4.18a0.2,0.2,0,0,0,.2-0.2V12.28a0.2,0.2,0,0,0-.2-0.2H11.9ZM3.542,19.25a0.4,0.4,0,0,1,0-.8H8.319a0.4,0.4,0,0,1,0,.8H3.542Zm0,1.792a0.4,0.4,0,0,1,0-.8H7.125a0.4,0.4,0,0,1,0,.8H3.542Zm7.763-1.792a0.4,0.4,0,0,1,0-.8h4.777a0.4,0.4,0,0,1,0,.8H11.305Zm0,1.792a0.4,0.4,0,0,1,0-.8h3.583a0.4,0.4,0,0,1,0,.8H11.305Z"/>
</svg>
