<svg xmlns="http://www.w3.org/2000/svg" width="21" height="24" viewBox="0 0 21 24">
  <defs>
    <style>
      .cls-1 {
        fill: #205d21;
        fill-rule: evenodd;
      }
    </style>
  </defs>
  <path class="cls-1" d="M18.928,21.551H18.041V20.959h0.887a0.888,0.888,0,0,0,.887-0.887V7.064a0.888,0.888,0,0,0-.887-0.887H2.962a0.888,0.888,0,0,0-.887.887V20.072a0.888,0.888,0,0,0,.887.887h9.165v0.592H2.962a1.48,1.48,0,0,1-1.478-1.479V7.064A1.48,1.48,0,0,1,2.962,5.586H18.928a1.48,1.48,0,0,1,1.478,1.478V20.072A1.48,1.48,0,0,1,18.928,21.551ZM20.11,9.429H1.78a0.3,0.3,0,1,1,0-.591H20.11A0.3,0.3,0,1,1,20.11,9.429ZM3.849,7.508a0.443,0.443,0,1,1-.443-0.444A0.443,0.443,0,0,1,3.849,7.508Zm1.478,0a0.443,0.443,0,1,1-.444-0.444A0.443,0.443,0,0,1,5.328,7.508Zm1.478,0a0.444,0.444,0,1,1-.444-0.444A0.443,0.443,0,0,1,6.806,7.508Zm11.53,5.765H7.693a0.3,0.3,0,0,1-.3-0.3V11.2a0.3,0.3,0,0,1,.3-0.3H18.336a0.3,0.3,0,0,1,.3.3v1.774A0.3,0.3,0,0,1,18.336,13.273ZM7.989,12.681H18.041V11.5H7.989v1.183Zm4.139,6.5H7.693a0.3,0.3,0,0,1-.3-0.3V14.751a0.3,0.3,0,0,1,.3-0.3H18.336a0.3,0.3,0,0,1,.3.3v3.844H18.041V15.047H7.989v3.548h4.139v0.591ZM5.919,15.047H3.554a0.3,0.3,0,1,1,0-.591H5.919A0.3,0.3,0,1,1,5.919,15.047Zm0-3.548H3.554a0.3,0.3,0,1,1,0-.591H5.919A0.3,0.3,0,1,1,5.919,11.5ZM16.563,24.507a0.3,0.3,0,0,1-.254-0.144l-1.6-2.66L13.2,22.961a0.3,0.3,0,0,1-.485-0.227v-6.5a0.3,0.3,0,0,1,.46-0.246L18.5,19.531a0.3,0.3,0,0,1-.083.531l-1.7.486,1.576,2.625a0.3,0.3,0,0,1-.1.406l-1.478.887A0.3,0.3,0,0,1,16.563,24.507Zm-1.774-3.548a0.276,0.276,0,0,1,.049,0,0.294,0.294,0,0,1,.2.139l1.622,2.7,0.971-.583-1.622-2.7a0.3,0.3,0,0,1,.172-0.437l1.455-.415-4.33-2.887V22.1L14.6,21.028A0.3,0.3,0,0,1,14.788,20.959Z"/>
</svg>
