<svg xmlns="http://www.w3.org/2000/svg" width="19" height="21" viewBox="0 0 19 21">
  <defs>
    <style>
      .cls-1 {
        fill: #205d21;
        fill-rule: evenodd;
      }
    </style>
  </defs>
  <path class="cls-1" d="M9.5,12.906a2.426,2.426,0,1,1,2.409-2.426A2.42,2.42,0,0,1,9.5,12.906Zm0-4.043A1.617,1.617,0,1,0,11.1,10.48,1.613,1.613,0,0,0,9.5,8.863ZM6.189,14.007l-0.075-.073A4.834,4.834,0,0,1,4.679,10.48,4.888,4.888,0,0,1,6.19,6.952L6.741,7.541a4.062,4.062,0,0,0-.064,5.817l0.065,0.063ZM9.9,20.992H9.1V12.5H9.9v8.49ZM2.885,17.534A9.643,9.643,0,0,1-.139,10.48,9.761,9.761,0,0,1,2.983,3.333l0.543,0.6A8.948,8.948,0,0,0,.664,10.48a8.844,8.844,0,0,0,2.771,6.467Zm1.656-1.766A7.23,7.23,0,0,1,2.27,10.48,7.318,7.318,0,0,1,4.615,5.125l0.543,0.6a6.505,6.505,0,0,0-2.086,4.76,6.425,6.425,0,0,0,2.019,4.7Zm8.263-1.76-0.551-.588a4.061,4.061,0,0,0,0-5.879L12.8,6.952A4.875,4.875,0,0,1,12.8,14.009Zm3.305,3.526-0.551-.587a8.843,8.843,0,0,0,2.772-6.467,8.948,8.948,0,0,0-2.862-6.552l0.543-.6a9.761,9.761,0,0,1,3.121,7.148A9.643,9.643,0,0,1,16.109,17.534Zm-1.656-1.766L13.9,15.18a6.425,6.425,0,0,0,2.019-4.7,6.506,6.506,0,0,0-2.086-4.76l0.543-.6a7.318,7.318,0,0,1,2.345,5.356A7.23,7.23,0,0,1,14.452,15.768Z"/>
</svg>
