<svg xmlns="http://www.w3.org/2000/svg" width="21" height="24" viewBox="0 0 21 24">
  <defs>
    <style>
      .cls-1 {
        fill: #205d21;
        fill-rule: evenodd;
      }
    </style>
  </defs>
  <path class="cls-1" d="M19.151,12.132H19.023A8.943,8.943,0,0,0,10.5,5.139,8.943,8.943,0,0,0,1.97,12.132H1.842A1.941,1.941,0,0,0-.1,14.071v1.171a1.941,1.941,0,0,0,1.939,1.939H2a0.322,0.322,0,0,0,.322-0.322V14.507A8.471,8.471,0,0,1,10.5,5.782a8.471,8.471,0,0,1,8.17,8.725v2.353h0a4.43,4.43,0,0,1-4.108,4.685H14.02l0-.034a1.147,1.147,0,0,0-1.207-1.082l-1.7.093a1.146,1.146,0,0,0-1.082,1.207l0.009,0.166a1.146,1.146,0,0,0,1.143,1.083l0.064,0,1.7-.093a1.146,1.146,0,0,0,.99-0.7h0.623A5.03,5.03,0,0,0,19.3,17.174a1.941,1.941,0,0,0,1.789-1.932V14.071A1.941,1.941,0,0,0,19.151,12.132Zm-18.6,3.11V14.071a1.3,1.3,0,0,1,1.137-1.286v3.743A1.3,1.3,0,0,1,.547,15.242Zm12.364,7-1.7.093a0.5,0.5,0,0,1-.529-0.475l-0.009-.165a0.5,0.5,0,0,1,.475-0.529l1.7-.093h0.028a0.5,0.5,0,0,1,.5.475l0.009,0.166A0.5,0.5,0,0,1,12.911,22.24Zm7.536-7a1.3,1.3,0,0,1-1.137,1.286V12.785a1.3,1.3,0,0,1,1.137,1.286v1.171ZM7.811,12.926a1.244,1.244,0,0,0-1.243,1.243,0.322,0.322,0,1,0,.643,0,0.6,0.6,0,0,1,1.2,0,0.322,0.322,0,1,0,.643,0A1.244,1.244,0,0,0,7.811,12.926Zm3.558,1.243a0.322,0.322,0,1,0,.643,0,0.6,0.6,0,0,1,1.2,0,0.322,0.322,0,1,0,.643,0A1.243,1.243,0,0,0,11.369,14.169Zm4.551-2.713A12.5,12.5,0,0,1,9.005,9a0.322,0.322,0,0,0-.437,0A19.576,19.576,0,0,1,4.7,11.8a0.322,0.322,0,1,0,.221.6A18.974,18.974,0,0,0,8.8,9.663a9.752,9.752,0,0,0,2.123,1.226A15.643,15.643,0,0,0,15.865,12.1,0.322,0.322,0,0,0,15.92,11.456Zm-6.714,10.1a6.772,6.772,0,0,1-5.132-6.705,0.322,0.322,0,1,0-.643,0A7.418,7.418,0,0,0,9.07,22.18a0.318,0.318,0,0,0,.069.007A0.322,0.322,0,0,0,9.206,21.551Zm5.381-1.43a0.321,0.321,0,0,0,.425.482,7.654,7.654,0,0,0,2.549-5.758,0.322,0.322,0,1,0-.643,0A7.013,7.013,0,0,1,14.587,20.122Z"/>
</svg>
