<svg xmlns="http://www.w3.org/2000/svg" width="21" height="24" viewBox="0 0 21 24">
  <defs>
    <style>
      .cls-1 {
        fill: #205d21;
        fill-rule: evenodd;
      }
    </style>
  </defs>
  <path class="cls-1" d="M18.6,19.607a9.658,9.658,0,0,0,0-10.592,0.344,0.344,0,0,0-.049-0.075A9.677,9.677,0,0,0,7.388,5.146L7.35,5.16a9.729,9.729,0,0,0-4.9,3.782,0.344,0.344,0,0,0-.048.073,9.659,9.659,0,0,0,0,10.6,0.338,0.338,0,0,0,.049.074,9.723,9.723,0,0,0,4.887,3.777,0.3,0.3,0,0,0,.06.021,9.675,9.675,0,0,0,11.15-3.8A0.325,0.325,0,0,0,18.6,19.607Zm-7.765,3.711V18.457a23.053,23.053,0,0,1,3.851.381A19.657,19.657,0,0,1,13.235,22.9,8.965,8.965,0,0,1,10.831,23.318Zm-3.116-.434a19.646,19.646,0,0,1-1.438-4.04,23,23,0,0,1,3.887-.387v4.861A8.966,8.966,0,0,1,7.715,22.885ZM1.492,14.647H5.079a20.307,20.307,0,0,0,.4,3.677,23.436,23.436,0,0,0-2.638.737A8.954,8.954,0,0,1,1.492,14.647ZM2.841,9.566a23.525,23.525,0,0,0,2.638.737,20.292,20.292,0,0,0-.4,3.677H1.492A8.948,8.948,0,0,1,2.841,9.566Zm7.323-4.258V10.17a23.063,23.063,0,0,1-3.887-.387A19.655,19.655,0,0,1,7.715,5.741,8.966,8.966,0,0,1,10.164,5.308Zm3.071,0.419a19.661,19.661,0,0,1,1.447,4.062,22.926,22.926,0,0,1-3.851.381V5.308A8.963,8.963,0,0,1,13.235,5.727ZM19.5,13.98H15.878a20.277,20.277,0,0,0-.4-3.669,23.492,23.492,0,0,0,2.674-.745A8.949,8.949,0,0,1,19.5,13.98Zm-4.292,0h-4.38V10.837a23.7,23.7,0,0,0,3.994-.4A19.619,19.619,0,0,1,15.211,13.98Zm-5.047-3.142V13.98H5.746a19.636,19.636,0,0,1,.387-3.545A23.749,23.749,0,0,0,10.164,10.837Zm-4.417,3.81h4.417V17.79a23.63,23.63,0,0,0-4.03.4A19.637,19.637,0,0,1,5.746,14.647Zm5.085,3.143V14.647h4.38a19.624,19.624,0,0,1-.386,3.538A23.672,23.672,0,0,0,10.831,17.79Zm5.047-3.143H19.5a8.955,8.955,0,0,1-1.349,4.414,23.441,23.441,0,0,0-2.674-.745A20.3,20.3,0,0,0,15.878,14.647Zm1.888-5.653a22.967,22.967,0,0,1-2.43.665,20.376,20.376,0,0,0-1.208-3.592A9.06,9.06,0,0,1,17.767,8.994ZM6.819,6.087a20.391,20.391,0,0,0-1.2,3.564,22.725,22.725,0,0,1-2.394-.657A9.069,9.069,0,0,1,6.819,6.087ZM3.228,19.633a22.817,22.817,0,0,1,2.394-.658,20.374,20.374,0,0,0,1.2,3.564A9.075,9.075,0,0,1,3.228,19.633Zm10.9,2.927a20.381,20.381,0,0,0,1.208-3.593,22.759,22.759,0,0,1,2.43.666A9.07,9.07,0,0,1,14.129,22.56Z"/>
</svg>
