<svg xmlns="http://www.w3.org/2000/svg" width="21" height="24" viewBox="0 0 21 24">
  <defs>
    <style>
      .cls-1 {
        fill: #205d21;
        fill-rule: evenodd;
      }
    </style>
  </defs>
  <path class="cls-1" d="M13.721,14.507a0.786,0.786,0,0,0-1.121.013l-0.546.57a0.587,0.587,0,0,1-.49.18,2.51,2.51,0,0,1-1.351-.837,2.492,2.492,0,0,1-.841-1.344A0.579,0.579,0,0,1,9.552,12.6l0.573-.543a0.777,0.777,0,0,0,.013-1.115L8.414,9.227a0.792,0.792,0,0,0-1.1-.01A3.606,3.606,0,0,0,6.1,11.946c0.035,2.214,2.075,4.13,2.279,4.317,0.188,0.2,2.114,2.233,4.339,2.268h0.058a3.649,3.649,0,0,0,2.684-1.215h0a0.782,0.782,0,0,0-.01-1.093Zm1.231,2.328a2.97,2.97,0,0,1-2.226,1c-1.987-.03-3.828-2.032-3.847-2.052L8.854,15.76c-0.02-.018-2.031-1.843-2.062-3.825A2.941,2.941,0,0,1,7.8,9.718a0.091,0.091,0,0,1,.062-0.025,0.087,0.087,0,0,1,.06.024l1.725,1.716a0.085,0.085,0,0,1,.025.062,0.083,0.083,0,0,1-.027.061L9.071,12.1a1.272,1.272,0,0,0-.392,1.075,3.192,3.192,0,0,0,1.04,1.75,3.218,3.218,0,0,0,1.758,1.034,1.287,1.287,0,0,0,1.081-.39L13.1,15a0.084,0.084,0,0,1,.061-0.027h0a0.085,0.085,0,0,1,.061.025l1.725,1.716A0.086,0.086,0,0,1,14.952,16.835ZM10.69,4.88a8.667,8.667,0,0,0-8.679,8.635,8.558,8.558,0,0,0,1.407,4.713L1.693,22.864a0.844,0.844,0,0,0,.228.926,0.855,0.855,0,0,0,.949.134L7.65,21.6A8.645,8.645,0,1,0,10.69,4.88Zm0,16.576A7.982,7.982,0,0,1,7.8,20.918a0.345,0.345,0,0,0-.216-0.011,0.346,0.346,0,0,0-.153.034L2.564,23.3a0.158,0.158,0,0,1-.217-0.2L4.13,18.313v0l0-.007c0-.006,0-0.013.005-0.02a0.332,0.332,0,0,0,.011-0.043,0.308,0.308,0,0,0,0-.033,0.322,0.322,0,0,0,0-.034,0.336,0.336,0,0,0,0-.036c0-.01,0-0.02,0-0.03a0.336,0.336,0,0,0-.012-0.039c0-.009-0.005-0.017-0.009-0.025A0.349,0.349,0,0,0,4.1,18s0-.008-0.006-0.011l0-.005v0a7.869,7.869,0,0,1-1.381-4.466A7.982,7.982,0,1,1,10.69,21.456Z"/>
</svg>
