<svg xmlns="http://www.w3.org/2000/svg" width="21" height="24" viewBox="0 0 21 24">
  <defs>
    <style>
      .cls-1 {
        fill: #205d21;
        fill-rule: evenodd;
      }
    </style>
  </defs>
  <path class="cls-1" d="M18.611,8.3H17.395a0.647,0.647,0,1,0-1.294,0H11.255a0.644,0.644,0,1,0-1.289,0H8.744a0.286,0.286,0,0,0-.285.287v3.932a0.285,0.285,0,1,0,.571,0V8.869H9.966V8.9a0.645,0.645,0,1,0,1.289,0V8.869H16.1V8.9a0.647,0.647,0,1,0,1.295,0V8.869h0.931v6.642H8.744a0.287,0.287,0,0,0,0,.573h9.868A0.286,0.286,0,0,0,18.9,15.8V8.583A0.286,0.286,0,0,0,18.611,8.3Zm-7.927.6a0.077,0.077,0,0,1-.076.076A0.071,0.071,0,0,1,10.537,8.9V8.583h0V8.3a0.075,0.075,0,0,1,.071-0.077,0.08,0.08,0,0,1,.076.077V8.9Zm6.14,0a0.076,0.076,0,1,1-.153,0V8.3a0.076,0.076,0,1,1,.153,0V8.9ZM4.795,8.3A1.529,1.529,0,1,0,6.316,9.826,1.527,1.527,0,0,0,4.795,8.3Zm0,2.484a0.955,0.955,0,1,1,.951-0.955A0.954,0.954,0,0,1,4.795,10.781Zm5.346,0.305h7.073a0.287,0.287,0,0,0,0-.573H10.141A0.287,0.287,0,0,0,10.141,11.086ZM17.5,11.922a0.286,0.286,0,0,0-.286-0.287H10.141a0.287,0.287,0,0,0,0,.574h7.073A0.287,0.287,0,0,0,17.5,11.922Zm-5.921.836H10.141a0.287,0.287,0,0,0,0,.573h1.437A0.287,0.287,0,0,0,11.578,12.758Zm5.636,0H15.672a0.287,0.287,0,0,0,0,.573h1.542A0.287,0.287,0,0,0,17.214,12.758Zm1.9-7.219H1.893A1.386,1.386,0,0,0,.511,6.926V18.1a1.387,1.387,0,0,0,1.382,1.389H8.67v2.651H6.47a1.568,1.568,0,0,0-1.563,1.57,0.286,0.286,0,0,0,.285.287H15.814a0.286,0.286,0,0,0,.286-0.287,1.568,1.568,0,0,0-1.563-1.57h-2.2V19.487h6.777A1.387,1.387,0,0,0,20.5,18.1V6.926A1.386,1.386,0,0,0,19.114,5.538ZM3.6,16.415V13.265a0.285,0.285,0,1,0-.571,0v3.081a0.185,0.185,0,0,1-.158.091,0.191,0.191,0,0,1-.191-0.192V12.824a0.666,0.666,0,0,1,.64-0.668l2.5,0h0A0.816,0.816,0,0,1,6.4,12.4l0.35,0.357A5.205,5.205,0,0,0,10.46,14.3a0.1,0.1,0,0,1,0,.2H9.886a4.639,4.639,0,0,1-3.307-1.374l-0.1-.1a0.285,0.285,0,0,0-.487.2v5.683H5.085L5.078,16.428a0.286,0.286,0,0,0-.285-0.286h0a0.287,0.287,0,0,0-.285.288l0.007,2.483H3.6v-2.5Zm11.886,7.007H5.52a0.994,0.994,0,0,1,.95-0.71h8.067A1,1,0,0,1,15.487,23.421Zm-3.721-1.283H9.241V19.487h2.525v2.651Zm8.159-4.04a0.814,0.814,0,0,1-.811.815H6.562V13.886a5.2,5.2,0,0,0,3.324,1.19H10.46A0.67,0.67,0,0,0,11.1,14.6l3.138-1.531a0.286,0.286,0,0,0-.249-0.516L11,14.006a0.668,0.668,0,0,0-.543-0.28A4.64,4.64,0,0,1,7.151,12.35L6.8,11.994a1.386,1.386,0,0,0-.985-0.414h0l-2.5,0H3.305a1.237,1.237,0,0,0-1.2,1.242v3.422a0.765,0.765,0,0,0,.763.765A0.776,0.776,0,0,0,3.03,17v1.918H1.893A0.814,0.814,0,0,1,1.082,18.1V6.926a0.814,0.814,0,0,1,.811-0.814H19.114a0.814,0.814,0,0,1,.811.814V18.1Z"/>
</svg>
