<svg xmlns="http://www.w3.org/2000/svg" width="21" height="24" viewBox="0 0 21 24">
  <defs>
    <style>
      .cls-1 {
        fill: #205d21;
        fill-rule: evenodd;
      }
    </style>
  </defs>
  <path class="cls-1" d="M8.845,10.975a0.354,0.354,0,0,0,.143.03,0.362,0.362,0,0,0,.333-0.224,0.373,0.373,0,0,0-.19-0.486,0.881,0.881,0,0,1-.468-0.49,0.906,0.906,0,0,1,.009-0.685,0.372,0.372,0,0,0-.19-0.485,0.359,0.359,0,0,0-.475.194A1.654,1.654,0,0,0,7.99,10.08,1.61,1.61,0,0,0,8.845,10.975Zm3.832-.194a0.362,0.362,0,0,0,.333.224,0.355,0.355,0,0,0,.143-0.03,1.61,1.61,0,0,0,.855-0.9,1.655,1.655,0,0,0-.016-1.251,0.359,0.359,0,0,0-.475-0.194,0.372,0.372,0,0,0-.19.485,0.907,0.907,0,0,1,.008.685,0.881,0.881,0,0,1-.469.49A0.373,0.373,0,0,0,12.678,10.782ZM4.437,13.17a1.62,1.62,0,0,0,1.6-1.634,0.362,0.362,0,1,0-.724,0,0.887,0.887,0,0,1-.877.9A0.37,0.37,0,0,0,4.437,13.17Zm13.124,0a0.37,0.37,0,0,0,0-.739,0.887,0.887,0,0,1-.877-0.9,0.362,0.362,0,1,0-.724,0A1.62,1.62,0,0,0,17.561,13.17ZM4.922,15.746H17.076a3.374,3.374,0,0,0,3.335-3.4,3.416,3.416,0,0,0-2.135-3.176q0.011-.135.011-0.267a3.374,3.374,0,0,0-3.335-3.4,3.245,3.245,0,0,0-1.049.173,3.306,3.306,0,0,0-5.808,0,3.245,3.245,0,0,0-1.049-.173A3.374,3.374,0,0,0,3.711,8.9q0,0.132.011,0.267a3.416,3.416,0,0,0-2.135,3.176A3.374,3.374,0,0,0,4.922,15.746ZM13.4,6.281a0.365,0.365,0,0,0,.2.2,0.353,0.353,0,0,0,.279-0.008,2.544,2.544,0,0,1,1.075-.237,2.6,2.6,0,0,1,2.165,1.178,1.294,1.294,0,0,1-1.277,1.2,0.37,0.37,0,0,0,0,.739,2,2,0,0,0,1.679-.929,2.686,2.686,0,0,1,0,.938,0.37,0.37,0,0,0,.259.419,2.672,2.672,0,0,1-.706,5.231H14.254a1.332,1.332,0,0,1-.582-1.711,0.373,0.373,0,0,0-.181-0.49,0.359,0.359,0,0,0-.479.185,2.094,2.094,0,0,0,.178,2.016h-1.83V4.706A2.624,2.624,0,0,1,13.4,6.281ZM4.216,9.776a0.37,0.37,0,0,0,.259-0.419,2.69,2.69,0,0,1,0-.939,2,2,0,0,0,1.679.929,0.37,0.37,0,0,0,0-.739,1.294,1.294,0,0,1-1.277-1.2A2.6,2.6,0,0,1,7.046,6.233a2.545,2.545,0,0,1,1.075.237,0.353,0.353,0,0,0,.279.008,0.366,0.366,0,0,0,.2-0.2,2.624,2.624,0,0,1,2.035-1.574v10.3H8.808a2.094,2.094,0,0,0,.178-2.016,0.359,0.359,0,0,0-.479-0.185,0.373,0.373,0,0,0-.181.49,1.331,1.331,0,0,1-.582,1.711H4.922A2.672,2.672,0,0,1,4.216,9.776ZM12.417,20H10.169l1.154-2.344a0.373,0.373,0,0,0-.161-0.5,0.359,0.359,0,0,0-.486.164L9.258,20.2a0.376,0.376,0,0,0,.015.36,0.361,0.361,0,0,0,.308.176H11.83l-1.154,2.344a0.373,0.373,0,0,0,.161.5,0.352,0.352,0,0,0,.162.04,0.361,0.361,0,0,0,.324-0.2l1.417-2.88a0.376,0.376,0,0,0-.015-0.36A0.36,0.36,0,0,0,12.417,20ZM2.13,19.816a0.555,0.555,0,1,0,.543.554A0.549,0.549,0,0,0,2.13,19.816Zm2.38,0a0.555,0.555,0,1,0,.543.554A0.549,0.549,0,0,0,4.51,19.816Zm2.38,0a0.555,0.555,0,1,0,.543.554A0.549,0.549,0,0,0,6.89,19.816Zm8.219,0a0.555,0.555,0,1,0,.543.554A0.549,0.549,0,0,0,15.109,19.816Zm2.38,0a0.555,0.555,0,1,0,.543.554A0.549,0.549,0,0,0,17.489,19.816Zm2.38,0a0.555,0.555,0,1,0,.543.554A0.549,0.549,0,0,0,19.868,19.816Z"/>
</svg>
