<svg xmlns="http://www.w3.org/2000/svg" width="21" height="24" viewBox="0 0 21 24">
  <defs>
    <style>
      .cls-1 {
        fill: #205d21;
        fill-rule: evenodd;
      }
    </style>
  </defs>
  <path class="cls-1" d="M18.469,5.107H17.382V4.34a0.406,0.406,0,1,0-.811,0V5.107H14.178V4.34a0.406,0.406,0,1,0-.812,0V5.107H10.973V4.34a0.406,0.406,0,1,0-.811,0V5.107H7.768V4.34a0.406,0.406,0,1,0-.811,0V5.107H4.563V4.34a0.406,0.406,0,1,0-.812,0V5.107H2.665A1.89,1.89,0,0,0,.778,6.994V21.626a1.89,1.89,0,0,0,1.887,1.888h15.8a1.89,1.89,0,0,0,1.887-1.888V6.994A1.89,1.89,0,0,0,18.469,5.107Zm1.076,16.519A1.077,1.077,0,0,1,18.469,22.7H2.665a1.077,1.077,0,0,1-1.076-1.076V6.994A1.077,1.077,0,0,1,2.665,5.918H3.752V6.685a0.406,0.406,0,1,0,.812,0V5.918H6.957V6.685a0.406,0.406,0,1,0,.811,0V5.918h2.393V6.685a0.406,0.406,0,1,0,.811,0V5.918h2.393V6.685a0.406,0.406,0,1,0,.812,0V5.918h2.393V6.685a0.406,0.406,0,1,0,.811,0V5.918h1.087a1.077,1.077,0,0,1,1.076,1.076V21.626ZM16.73,8.911H4.4a0.406,0.406,0,0,0,0,.812H16.73A0.406,0.406,0,0,0,16.73,8.911ZM7.649,17.436L7.1,20.642a0.406,0.406,0,0,0,.589.428l2.88-1.514,2.88,1.514a0.406,0.406,0,0,0,.589-0.428l-0.55-3.207,2.33-2.271a0.405,0.405,0,0,0-.225-0.692L12.371,14l-1.44-2.918a0.405,0.405,0,0,0-.728,0L8.763,14l-3.22.468a0.405,0.405,0,0,0-.225.692Zm1.443-2.659A0.406,0.406,0,0,0,9.4,14.555l1.17-2.372,1.171,2.372a0.406,0.406,0,0,0,.306.222l2.617,0.38L12.767,17a0.406,0.406,0,0,0-.117.359L13.1,19.97l-2.341-1.231a0.408,0.408,0,0,0-.378,0L8.037,19.97l0.447-2.607A0.406,0.406,0,0,0,8.368,17L6.474,15.157Z"/>
</svg>
