<svg xmlns="http://www.w3.org/2000/svg" width="21" height="24" viewBox="0 0 21 24">
  <defs>
    <style>
      .cls-1 {
        fill: #205d21;
        fill-rule: evenodd;
      }
    </style>
  </defs>
  <path class="cls-1" d="M12.513,17.3a2.216,2.216,0,1,0-3.248,0A4.387,4.387,0,0,0,6.483,21.4v0.53a0.319,0.319,0,0,0,.319.318H7.954a0.319,0.319,0,1,0,0-.637H7.12V21.4a3.755,3.755,0,0,1,2.759-3.628,2.206,2.206,0,0,0,2.021,0A3.755,3.755,0,0,1,14.659,21.4v0.211h-0.71a0.319,0.319,0,1,0,0,.637h1.029a0.319,0.319,0,0,0,.319-0.318V21.4A4.387,4.387,0,0,0,12.513,17.3Zm-1.624-3.084a1.578,1.578,0,0,1,.851,2.907,0.356,0.356,0,0,0-.054.025,1.533,1.533,0,0,1-1.593,0,0.355,0.355,0,0,0-.054-0.025A1.578,1.578,0,0,1,10.889,14.219ZM18.977,12a1.736,1.736,0,1,0-2.7,0,3.359,3.359,0,0,0-2.025,3.09v0.4a0.318,0.318,0,0,0,.319.318h6.107A0.318,0.318,0,0,0,21,15.484v-0.4A3.359,3.359,0,0,0,18.977,12ZM17.629,9.807a1.1,1.1,0,0,1,.6,2.02,0.281,0.281,0,0,0-.043.021,1.064,1.064,0,0,1-1.108,0,0.288,0.288,0,0,0-.044-0.021A1.1,1.1,0,0,1,17.629,9.807Zm2.735,5.358H19.529V14.422a0.319,0.319,0,1,0-.637,0v0.743H16.367V14.422a0.319,0.319,0,1,0-.638,0v0.743H14.894V15.088a2.724,2.724,0,0,1,1.972-2.623,1.733,1.733,0,0,0,1.527,0,2.724,2.724,0,0,1,1.971,2.624v0.077ZM7.836,11h6.107a0.319,0.319,0,0,0,.319-0.319v-0.4A3.358,3.358,0,0,0,12.237,7.2a1.736,1.736,0,1,0-2.7,0,3.358,3.358,0,0,0-2.025,3.09v0.4A0.319,0.319,0,0,0,7.836,11Zm3.054-6a1.1,1.1,0,0,1,.6,2.02,0.382,0.382,0,0,0-.043.021,1.063,1.063,0,0,1-1.108,0,0.367,0.367,0,0,0-.043-0.021A1.1,1.1,0,0,1,10.889,5.007ZM8.155,10.289a2.723,2.723,0,0,1,1.972-2.624,1.733,1.733,0,0,0,1.526,0,2.724,2.724,0,0,1,1.972,2.624v0.077H12.789V9.623a0.319,0.319,0,1,0-.637,0v0.743H9.628V9.623a0.319,0.319,0,1,0-.638,0v0.743H8.155V10.289Zm-0.632,5.2v-0.4A3.359,3.359,0,0,0,5.5,12a1.736,1.736,0,1,0-2.7,0,3.359,3.359,0,0,0-2.025,3.09v0.4A0.318,0.318,0,0,0,1.1,15.8H7.2A0.318,0.318,0,0,0,7.522,15.484ZM4.15,9.807a1.1,1.1,0,0,1,.6,2.02,0.278,0.278,0,0,0-.043.021,1.064,1.064,0,0,1-1.108,0,0.286,0.286,0,0,0-.044-0.021A1.1,1.1,0,0,1,4.15,9.807Zm2.735,5.358H6.049V14.422a0.319,0.319,0,1,0-.638,0v0.743H2.888V14.422a0.319,0.319,0,1,0-.638,0v0.743H1.415V15.088a2.724,2.724,0,0,1,1.972-2.623,1.733,1.733,0,0,0,1.526,0,2.724,2.724,0,0,1,1.972,2.624v0.077Zm5.747,5.272h-0.7a0.114,0.114,0,0,1-.109-0.079L11.6,19.691a0.752,0.752,0,0,0-1.43,0l-0.217.667a0.114,0.114,0,0,1-.109.079h-0.7a0.752,0.752,0,0,0-.442,1.36l0.567,0.413a0.114,0.114,0,0,1,.042.128L9.1,23.006a0.741,0.741,0,0,0,.273.841,0.742,0.742,0,0,0,.884,0l0.568-.413a0.114,0.114,0,0,1,.134,0l0.567,0.412a0.752,0.752,0,0,0,1.157-.841l-0.217-.668a0.114,0.114,0,0,1,.042-0.128l0.567-.412A0.752,0.752,0,0,0,12.632,20.438ZM12.7,21.282l-0.567.412a0.75,0.75,0,0,0-.273.84L12.075,23.2a0.114,0.114,0,0,1-.176.128l-0.567-.412a0.75,0.75,0,0,0-.884,0l-0.568.413A0.114,0.114,0,0,1,9.7,23.2l0.217-.668a0.751,0.751,0,0,0-.273-0.841L9.08,21.282a0.115,0.115,0,0,1,.067-0.207h0.7a0.75,0.75,0,0,0,.715-0.519l0.217-.668a0.115,0.115,0,0,1,.218,0l0.217,0.667a0.75,0.75,0,0,0,.715.519h0.7A0.115,0.115,0,0,1,12.7,21.282Z"/>
</svg>
